# xmcd CD database file
#
# Track frame offsets:
#	150
#	20913
#	32707
#	77291
#	95967
#	117433
#	153870
#	166833
#	228624
#	250497
#	282303
#
# Disc length: 3992 seconds
#
# Revision: 0
# Processed by: cddbd v1.5.2PL0 Copyright (c) Steve Scherf et al.
# Submitted via: Feurio! 1.68 - http://www.feurio.com
#
DISCID=8f0f960b
DTITLE=SAVOY BROWN - Blues, Balls and Boogie
DYEAR=1900
DGENRE=
TTITLE0=Street CornerTalkin'
TTITLE1=I'm Tired
TTITLE2=Hellbound Train
TTITLE3=Train To Nowhere
TTITLE4=Can't Get Next To You
TTITLE5=All I Can Do Is Cry
TTITLE6=Needle and Spoon
TTITLE7=Tell Mama
TTITLE8=Louisiana Blues
TTITLE9=The Boogie
TTITLE10=Run To Me
EXTD=
EXTT0=
EXTT1=
EXTT2=
EXTT3=
EXTT4=
EXTT5=
EXTT6=
EXTT7=
EXTT8=
EXTT9=
EXTT10=
PLAYORDER=
